<?xml version="1.0" encoding="UTF-8" standalone="no"?>
<!-- Created with Inkscape (http://www.inkscape.org/) -->

<svg
   width="92.604164mm"
   height="52.916668mm"
   viewBox="0 0 92.604164 52.916668"
   version="1.1"
   id="svg5"
   inkscape:export-filename="/home/francesco/work/workspace/dafne/mac_installer_bg.png"
   inkscape:export-xdpi="96"
   inkscape:export-ydpi="96"
   inkscape:version="1.1.2 (0a00cf5339, 2022-02-04, custom)"
   sodipodi:docname="mac_installer_bg.svg"
   xmlns:inkscape="http://www.inkscape.org/namespaces/inkscape"
   xmlns:sodipodi="http://sodipodi.sourceforge.net/DTD/sodipodi-0.dtd"
   xmlns="http://www.w3.org/2000/svg"
   xmlns:svg="http://www.w3.org/2000/svg">
  <sodipodi:namedview
     id="namedview7"
     pagecolor="#ffffff"
     bordercolor="#666666"
     borderopacity="1.0"
     inkscape:pageshadow="2"
     inkscape:pageopacity="0.0"
     inkscape:pagecheckerboard="0"
     inkscape:document-units="mm"
     showgrid="false"
     fit-margin-top="0"
     fit-margin-left="0"
     fit-margin-right="0"
     fit-margin-bottom="0"
     inkscape:zoom="1.085914"
     inkscape:cx="155.16882"
     inkscape:cy="227.45816"
     inkscape:window-width="1920"
     inkscape:window-height="1019"
     inkscape:window-x="0"
     inkscape:window-y="0"
     inkscape:window-maximized="1"
     inkscape:current-layer="layer1" />
  <defs
     id="defs2">
    <marker
       style="overflow:visible;"
       id="Arrow1Send"
       refX="0.0"
       refY="0.0"
       orient="auto"
       inkscape:stockid="Arrow1Send"
       inkscape:isstock="true">
      <path
         transform="scale(0.2) rotate(180) translate(6,0)"
         style="fill-rule:evenodd;fill:context-stroke;stroke:context-stroke;stroke-width:1.0pt;"
         d="M 0.0,0.0 L 5.0,-5.0 L -12.5,0.0 L 5.0,5.0 L 0.0,0.0 z "
         id="path2711" />
    </marker>
    <marker
       style="overflow:visible;"
       id="Arrow1Mend"
       refX="0.0"
       refY="0.0"
       orient="auto"
       inkscape:stockid="Arrow1Mend"
       inkscape:isstock="true">
      <path
         transform="scale(0.4) rotate(180) translate(10,0)"
         style="fill-rule:evenodd;fill:context-stroke;stroke:context-stroke;stroke-width:1.0pt;"
         d="M 0.0,0.0 L 5.0,-5.0 L -12.5,0.0 L 5.0,5.0 L 0.0,0.0 z "
         id="path2705" />
    </marker>
    <marker
       style="overflow:visible;"
       id="Arrow1Lend"
       refX="0.0"
       refY="0.0"
       orient="auto"
       inkscape:stockid="Arrow1Lend"
       inkscape:isstock="true">
      <path
         transform="scale(0.8) rotate(180) translate(12.5,0)"
         style="fill-rule:evenodd;fill:context-stroke;stroke:context-stroke;stroke-width:1.0pt;"
         d="M 0.0,0.0 L 5.0,-5.0 L -12.5,0.0 L 5.0,5.0 L 0.0,0.0 z "
         id="path2699" />
    </marker>
  </defs>
  <g
     inkscape:label="Layer 1"
     inkscape:groupmode="layer"
     id="layer1"
     transform="translate(-45.996731,-38.745541)">
    <rect
       style="fill:#e0ebe5;fill-opacity:0.87117064;stroke-width:5.37317"
       id="rect846"
       width="147.10834"
       height="70.114586"
       x="45.996731"
       y="38.745541"
       inkscape:export-filename="/home/francesco/work/workspace/dafne/mac_installer_bg.png"
       inkscape:export-xdpi="96"
       inkscape:export-ydpi="96" />
    <path
       style="color:#000000;fill:#a72727;fill-rule:evenodd;stroke-width:1.32796;stroke-linecap:round;-inkscape-stroke:none"
       d="m 104.68693,51.897916 c -2.10548,0.116927 -4.26547,0.447047 -6.460833,1.021908 a 1.7031088,1.7031088 0 0 0 -1.213838,2.080125 1.7031088,1.7031088 0 0 0 2.077531,1.216431 c 7.90653,-2.070342 15.14505,-0.628766 21.14103,2.523643 5.99598,3.152412 10.70065,8.060511 13.26922,12.698619 a 1.7031088,1.7031088 0 0 0 2.31616,0.66398 1.7031088,1.7031088 0 0 0 0.66398,-2.31615 c -2.9226,-5.277366 -8.03946,-10.577085 -14.66463,-14.060295 -4.96888,-2.612407 -10.81217,-4.179041 -17.12862,-3.828261 z"
       id="path7776"
       inkscape:export-filename="/home/francesco/work/workspace/dafne/mac_installer_bg.png"
       inkscape:export-xdpi="96"
       inkscape:export-ydpi="96" />
    <g
       id="g7766"
       transform="matrix(1.3128293,-0.19989327,0.19989327,1.3128293,-16.061075,4.1098629)"
       inkscape:export-filename="/home/francesco/work/workspace/dafne/mac_installer_bg.png"
       inkscape:export-xdpi="96"
       inkscape:export-ydpi="96">
      <g
         id="path7768">
        <path
           style="color:#000000;fill:#a72727;fill-rule:evenodd;stroke-width:0.513pt;-inkscape-stroke:none"
           d="m 103.74644,64.23402 -3.48655,-1.001225 6.5932,6.610938 -2.10543,-9.096259 z"
           id="path7772" />
        <path
           style="color:#000000;fill:#a72727;fill-rule:evenodd;-inkscape-stroke:none"
           d="m 104.7832,59.384766 -1.27148,4.425781 -4.425783,-1.271485 8.371093,8.394532 z m -0.0723,2.724609 1.53906,6.644531 -4.81836,-4.830078 2.54883,0.732422 0.0937,-0.328125 z"
           id="path7774" />
      </g>
    </g>
  </g>
</svg>
